<?xml version="1.0" encoding="UTF-8"?>
<svg id="Camada_1" xmlns="http://www.w3.org/2000/svg" xmlns:xlink="http://www.w3.org/1999/xlink" version="1.1" viewBox="0 0 68.2 68.2">
  <!-- Generator: Adobe Illustrator 29.5.1, SVG Export Plug-In . SVG Version: 2.1.0 Build 141)  -->
  <defs>
    <style>
      .st0 {
        fill: url(#linear-gradient);
      }

      .st1 {
        fill: #fff;
      }
    </style>
    <linearGradient id="linear-gradient" x1="34.1" y1=".36" x2="34.1" y2="65.15" gradientUnits="userSpaceOnUse">
      <stop offset=".04" stop-color="#390b59"/>
      <stop offset="1" stop-color="#902ad1"/>
    </linearGradient>
  </defs>
  <rect class="st0" x=".69" y=".69" width="66.83" height="66.83" rx="33.41" ry="33.41"/>
  <g>
    <rect class="st1" x="48.29" y="20.82" width="4.71" height="5.02"/>
    <path class="st1" d="M53,31.91l-4.71-6.07v19.85l-15.59-19.85h-6.3l5.74,7.22v12.63l-15.59-19.85h-6.54c.04.06.1.12.15.18,4.7,5.59,9.96,13.16,14.58,18.67,4.01,4.78,9.45,2.9,11.62-3.51.19-.58.13-1.95.61-1.8l3.78,5.07c3.93,5.67,12.26,1.89,12.26-5.79v-6.75h0Z"/>
  </g>
</svg>